<svg id="Layer_1" data-name="Layer 1" xmlns="http://www.w3.org/2000/svg" viewBox="0 0 845.953 351.409"><defs><style>.cls-1{fill:#a47325;}.cls-2{fill:#f9f8f8;}.cls-3{fill:#191919;}.cls-4{fill:none;}</style></defs><path d="M56.1,334.205c.481,6.034-2.144,10.509-6.9,13.65a20.652,20.652,0,0,1-31.842-13.268A30.4,30.4,0,0,1,43.975,298.3c11.392-1.327,22.029,1.318,32.4,5.491,10.513,4.228,20.8,9.039,31.42,12.972,9.632,3.569,19.741,4.822,29.89,2.244,15.658-3.977,24.671-14.493,27.774-30,1.089-5.441.862-11.152,1.134-16.745a7.017,7.017,0,0,0-.707-2.749c-1.21-3.055-3.536-4.053-6.448-2.469a64.776,64.776,0,0,0-6.912,4.6c-15.666,11.338-33.282,17.071-52.456,18.477-16.961,1.244-33.451-.682-48.964-7.9C23.451,269.353,7.235,247.383,1.7,217.665c-4.625-24.834.245-48.109,13.818-69.39C29.69,126.058,50.07,112.305,75.283,105.3a170.46,170.46,0,0,1,53.756-6.071c17.171.791,33.941,3.779,49.061,12.661,11.544,6.781,19.687,16.265,22.575,29.695,3.935,18.3-7.747,34.281-26.421,36.116-9.368.92-18.37-.37-25.742-6.5-3.839-3.194-6.866-7.505-9.757-11.661-3.426-4.927-6.453-10.09-11.959-13.082-12.338-6.7-29.621-4.119-40.333,5.877-10.076,9.4-15.292,21.251-17.616,34.533-2.061,11.782-1.737,23.425,2.466,34.83,8.953,24.3,33.124,33.906,55.962,26.446a45.2,45.2,0,0,0,17.4-10.047c2.936-2.782,5.462-5.871,5.9-10.1.443-4.256-2.062-6.55-6.176-5.4a60.528,60.528,0,0,0-8.176,3.286c-6.8,3.033-13.759,5.158-21.356,4.42a21.461,21.461,0,0,1-19-15.986c-2.273-9.322,1.232-17.8,9.567-23.026,5.878-3.687,12.491-5.256,19.248-5.672,18.71-1.151,37.239,0,55.29,5.6,14.932,4.636,27.592,12.468,36.139,25.952a66.132,66.132,0,0,1,9.729,29.322c2.141,21.736-1.254,42.6-11.812,61.834-13.219,24.079-33.93,37.853-60.949,42.12-19.274,3.044-37.246-1.305-53.955-10.835-9.465-5.4-18.476-11.595-27.667-17.471-6.458-4.128-13.122-7.736-20.828-8.967-8.638-1.379-16.551,1.845-20.6,8.445-4.762,7.759-2.877,17.37,4.216,21.5,6.938,4.038,16.27,1.013,20.7-6.719C55.357,335.684,55.716,334.937,56.1,334.205Z"/><path d="M24.854,83.787a33.449,33.449,0,0,0-5.235-2.572,7.882,7.882,0,0,0-9.945,9.272c1.447,7.419,9.028,11.141,16.913,8.294a18.851,18.851,0,0,0,9.547-7.707c2.764-4.283,5.252-8.751,7.721-13.216C49.489,67.666,57.641,61.05,69.5,59.774c11.079-1.193,20.648,2.541,29.012,9.562a58.423,58.423,0,0,1,7.562,8.1c-10.672-.657-20.182,1.946-28.32,8.237-2.615-1.559-4.915-3.3-7.49-4.392-6.657-2.822-12.44-1.216-16.827,4.5-1.79,2.331-3.332,4.854-4.95,7.313-5.021,7.631-11.619,12.923-20.854,14.611-12.08,2.209-23.441-4.4-26.206-15.421-2.6-10.348,4.5-19.386,14.739-18.713a11.41,11.41,0,0,1,9.013,5.416C26.517,80.987,26.4,81.689,24.854,83.787Z"/><path d="M75.82,99.51a16.082,16.082,0,0,1,7.457-11.374c6.97-4.537,14.684-5.874,22.847-4.935,4.294.494,8.335,1.763,11.421,4.964a48.193,48.193,0,0,1,3.744,5.144A192.353,192.353,0,0,0,75.82,99.51Z"/><path d="M343.394,228.827c0-13.956.136-27.914-.058-41.867-.1-6.89,2.757-11.788,8.9-14.465,6.067-2.645,12.095-1.9,16.838,2.857,3.52,3.53,6.356,3.152,10.328.787,16.81-10.007,36.6-8.672,50.423,3.208,8.8,7.566,12.366,17.937,13.827,28.881,2.986,22.387.043,44.484-5.312,66.207-3.006,12.194-12.512,17.6-24.486,15.307A21.211,21.211,0,0,1,397.1,266.124c.961-7.282,3.411-14.381,5.37-21.514,1.643-5.98,3.879-11.815,5.2-17.857a31.884,31.884,0,0,0,.318-11.264A15.587,15.587,0,0,0,393.77,202.28a16.66,16.66,0,0,0-17.234,10.732c-2.491,6.642-1.884,13.407-.576,20.173,2.1,10.843,4.688,21.618,6.18,32.543,1.716,12.568-5.4,22.4-16.558,24.347-11.874,2.074-21.96-6.013-22.094-18.017-.162-14.408-.038-28.82-.038-43.231Z"/><path d="M562.115,290.4c-34.795.294-54.791-25.568-56.2-54.582-.887-18.254,3.016-35.3,15.717-49.311,16-17.655,49.016-21.88,69.138-9.051,12.218,7.79,16.9,19.111,15.031,33.09-1.8,13.466-10.494,21.821-22.753,25.787-8.1,2.62-16.866,3.213-25.363,4.531-6.8,1.054-10.159,3.52-10.411,8.106-.277,5.046,3.161,8.976,9.321,10.655,8.25,2.247,15.444-.574,22.5-4.488,3.944-2.188,7.925-4.592,12.2-5.841,9.247-2.7,17.471,4.917,16.066,14.515a22.088,22.088,0,0,1-9.069,15.174C587.516,286.873,575.345,290.313,562.115,290.4Zm-4.95-68.987c9.443.035,16.611-5.843,16.68-13.679.06-6.792-4.679-11.29-11.95-11.34-9.053-.063-16.122,6.12-16.22,14.187C545.588,217.66,549.535,221.381,557.165,221.41Z"/><path d="M331.077,205.707c-.043,13.686-6.635,24.134-19.915,29.456-6.774,2.714-14.261,3.706-21.478,5.226-2.942.62-6.04.454-9.038.86-4,.542-7.328,2.141-8.112,6.63-.761,4.361,1.129,9.144,5.355,10.471,4.309,1.352,9.35,2.359,13.606,1.416,5.769-1.278,11.043-4.686,16.63-6.931,3.876-1.558,7.907-3.744,11.895-3.8,8.695-.129,13.822,8.067,11.5,17.194-1.453,5.7-5.015,9.961-9.567,13.456-19.845,15.242-54.1,14.1-72.778-2.612-8.742-7.823-13.933-17.859-16.42-29.249a75.7,75.7,0,0,1,2.963-43.385c8.033-21.479,24.352-32.087,46.67-34.05,10.225-.9,20.365,0,29.755,4.581C324.56,181.021,331.281,190.855,331.077,205.707Zm-48.686,15.656c9.492-.011,15.82-5.492,15.89-13.764.057-6.86-4.331-11.127-11.5-11.179-9.319-.068-16.374,6.175-16.478,14.581C270.223,217.723,274.479,221.372,282.391,221.363Z"/><path d="M499.034,263.6c-.728,3.86-1.066,8.138-2.374,12.095-2.956,8.945-9.525,13.8-18.849,14.616-9.1.8-16.883-3.907-21.067-12.108-3.4-6.67-3.714-13.835-2.62-20.855,1.812-11.629,4.167-23.2,6.892-34.648a22.552,22.552,0,0,1,5.689-10.552c7.248-7.028,18.691-4.106,22.415,6.036,3.259,8.878,5.286,18.244,7.376,27.5C497.788,251.408,498.179,257.332,499.034,263.6Z"/><path d="M493.088,183.045a17.182,17.182,0,0,1-17.339,17.215,17.4,17.4,0,0,1-17.278-17.838c.065-9.228,7.814-16.647,17.383-16.643A17.18,17.18,0,0,1,493.088,183.045Z"/><path d="M378.424,38.385c3.316-.365,6.345-.647,9.352-1.086.435-.063.933-.821,1.108-1.354.931-2.835,1.828-5.683,2.606-8.562.314-1.162.833-1.657,2.025-1.484.769.112,1.571.045,2.325.211a3.721,3.721,0,0,1,2.949,4.8c-.246.939-.594,1.853-.926,2.767s-.7,1.793-1.152,2.959c15.142-.614,30-.419,44.8,1.69h-3.939l-.034.191,1.292.248-.018.266-2.972.131-.016.168,4.479.727c-3.363,0-6.382.113-9.391-.02a194.459,194.459,0,0,0-35.385,1.729,3.664,3.664,0,0,0-2.049,1.388c-2.281,2.9-4.419,5.916-6.713,8.807a3.458,3.458,0,0,1-2.108,1.155c-1.427.165-2.112-.851-1.608-2.2.948-2.545,1.959-5.067,3.111-8.025-2.751.354-5.194.825-7.654.939-2.212.1-3.14,1.212-3.99,3.132-6.572,14.846-13.15,29.689-17.592,45.354a68.312,68.312,0,0,0-2.114,10.468c-.352,2.935.808,3.685,3.191,1.988a148.344,148.344,0,0,0,12.968-10.214c4.008-3.591,7.587-7.661,11.379-11.5a13.6,13.6,0,0,1,1.7-1.261l.564.4a14.073,14.073,0,0,1-.972,2.777c-5.14,8.535-11.293,16.2-19.525,21.98-2.6,1.823-5.489,3.082-8.767,2.526-5.779-.982-8.762-5.381-7.857-11.41.18-1.195.42-2.381.668-3.772-3.255,2.658-6.229,5.267-9.389,7.627-5.15,3.847-10.742,6.874-17.216,7.774-9.5,1.321-16.076-5.3-13.849-14.54,3-12.463,10.619-21.487,22.33-26.874a11.328,11.328,0,0,1,7.424-.806c4.511,1.039,6.566,3.772,5.357,8.233a26.485,26.485,0,0,1-3.7,7.852,33.379,33.379,0,0,1-12.862,11.081c-3.779,1.881-7.683,2.831-11.952,1.015a13.967,13.967,0,0,0-.514,8.841,2.031,2.031,0,0,0,2.748,1.5c3.6-1.047,7.321-1.851,10.7-3.4,7.236-3.318,13.024-8.664,18.762-14.092a35.013,35.013,0,0,0,9.357-14.658c2.938-8.657,6.646-17.052,10.027-25.559.26-.654.522-1.307.944-2.365-2.153.374-4.007.542-5.773,1.028q-12.849,3.535-25.653,7.236c-2.425.7-5.2.269-6.7-1.362-1.326-1.445-1.124-2.544.66-3.3,9.611-4.085,19.7-6.505,29.9-8.488,2.994-.582,6.029-.955,9.015-1.568a2.8,2.8,0,0,0,1.785-1.36c3.01-7.116,5.933-14.267,8.848-21.423.736-1.806,1.493-2.169,3.226-1.358,3.335,1.56,4.537,4.373,3.147,7.912-1.707,4.35-3.582,8.633-5.388,12.944C379.117,36.822,378.828,37.461,378.424,38.385Zm-62.658,54.02c9.584-.7,23.731-13.737,23.2-21.232C331.713,70.63,319.259,81.98,315.766,92.405Z"/><path d="M398.944,85.355a58.689,58.689,0,0,1,33.307-9.073c-.123,1.819-1.108,2.032-2.2,2.162-10.085,1.2-19.073,5.221-27.535,10.637-1.208.774-1.361,1.526-.9,2.862,1.37,3.97,2.176,8.058,1.064,12.239a14.642,14.642,0,0,1-14.662,10.551c-5.318-.3-8.561-4.278-7.248-9.443a17.286,17.286,0,0,1,3.367-6.684,110.209,110.209,0,0,1,9.177-9.228,1.828,1.828,0,0,0,.565-2.454,76.375,76.375,0,0,1-3.479-9.482A13.125,13.125,0,0,1,393.087,65.7c3.657-4.611,8.16-7.964,14.18-8.82a5.448,5.448,0,0,1,4.938,1.748,2.711,2.711,0,0,1,.745,1.848c-.027.317-.99.666-1.576.8a22.008,22.008,0,0,0-12.705,8.458c-2.9,3.777-3.521,7.86-1.36,12.229C397.822,83,398.314,84.047,398.944,85.355Zm-2.9,9.166c-3.65,2.027-9.671,9.322-10.74,13.184a18.81,18.81,0,0,0-.32,3.362C392.206,111.553,398.86,101.28,396.048,94.521Z"/><path d="M541.1,69.511c6.27-.38,12.259-2.477,18.436-1.742l.221.653a8.667,8.667,0,0,1-1.964,1.238c-5.332,1.607-10.661,3.241-16.052,4.628a3.679,3.679,0,0,0-2.891,2.6c-3,7.737-7.591,14.311-14.469,19.121-3.6,2.517-7.483,3.886-11.921,2.6-5.222-1.515-8.086-6.438-6.929-12.5,2.161-11.321,8.794-19.484,18.638-25.082a18.378,18.378,0,0,1,7.461-2.384c5.1-.375,8.6,2.969,9.186,8.048C540.921,67.581,541,68.475,541.1,69.511Zm-17.012-1.4c-6.253,6.079-10.94,12.619-12.563,20.985a12.747,12.747,0,0,0-.1,3.676c.21,2.022.967,2.656,2.858,1.934a24.167,24.167,0,0,0,6.131-3.261A46.7,46.7,0,0,0,532.8,76.328a6.616,6.616,0,0,0,.332-.994C529.028,74.457,525.693,72.681,524.09,68.112Zm9.033,2.629c1.45.255,2.211-.3,2.312-1.8.047-.7.318-1.4.328-2.1.019-1.372-.073-2.746-.119-4.12-1.635.424-3.279.813-4.9,1.3a2.938,2.938,0,0,0-1.05.838c-2.081,2.107-1.353,4.852,1.511,5.638A13.762,13.762,0,0,0,533.123,70.741Z"/><polygon points="440.175 67.918 440.159 67.925 440.163 67.91 440.175 67.918"/><path d="M431.715,135.262c7.032-7.079,15.391-12.135,24.464-16.1C447.454,123.662,439.056,128.654,431.715,135.262Z"/><path d="M440.268,67.707l-.093.211-.012-.008C440.2,67.844,440.233,67.773,440.268,67.707Z"/><path d="M489.04,106.922c.305-.772.5-1.319.73-1.841,3.752-8.418,7.528-16.828,11.25-25.258,1.365-3.089,2.664-6.21,3.869-9.362,1.151-3.008.429-4.591-2.457-5.91-.476-.214-.96-.4-1.428-.632-1.3-.64-2.368-.764-3.3.726a18.9,18.9,0,0,1-2.512,2.711c-9.144,9.612-18.283,19.227-28.815,27.364-4.533,3.5-9.195,6.85-14.8,8.449-5.278,1.5-8.11-.058-9.858-5.27a15.411,15.411,0,0,1-.413-1.5c-1.24-5.528-.125-10.864,1.443-16.123,4.576-15.349,12.889-28.6,23.257-40.623,7.33-8.5,15.342-16.3,25.1-22.016a35.655,35.655,0,0,1,8.925-3.741c6.483-1.685,8.718.593,7.376,7.127-1.825,8.909-6.7,16.106-12.907,22.5-1.849,1.907-1.354,4.536,1.17,5.48,2.2.82,4.026.667,5.754-1.248,6.381-7.084,10.352-15.256,11.2-24.77.7-7.911-3.273-13.719-10.279-14.886a23.638,23.638,0,0,0-8.285.32c-5.469,1.085-10.123,4.08-14.437,7.443a129.613,129.613,0,0,0-40.651,52.626c-3.428,8.157-5.554,16.633-4.279,25.636,1.256,8.855,7.384,14.152,16.263,14.016,5.781-.086,10.661-2.559,15.283-5.7,9.081-6.179,16.809-13.9,24.579-21.579.539-.531,1.1-1.034,1.877-1.752a4.908,4.908,0,0,1-.133.874c-4.17,9.366-8.324,18.743-12.572,28.074a3.612,3.612,0,0,1-2.017,1.482c-6.117,2.154-12.37,3.96-18.381,6.378a90.013,90.013,0,0,0-28.9,18.1c-4.182,3.987-7.751,8.43-9.245,14.184a13.468,13.468,0,0,0,10.173,16.828c5.668,1.31,10.825-.347,15.732-2.961,7.783-4.143,13.817-10.3,19.2-17.144,7.5-9.546,13.466-20.043,18.9-30.863a3.639,3.639,0,0,1,2.711-2.138q6.237-1.475,12.533-2.306s.1-.011.285-.035a138.106,138.106,0,0,1,17-1.166c6.76-.238,15.166-.3,24.6.148q2.88.129,5.883.332C528.934,103.758,509.133,103.977,489.04,106.922Zm-48.865-39-.016.007,0-.015c.035-.066.07-.137.1-.2Zm16,51.245c-8.727,4.5-17.125,9.49-24.466,16.1C438.747,128.181,447.106,123.126,456.18,119.163Zm-13.228,38.275c.53-.172,1.065-.344,1.6-.515-3.823,2.687-7.969,4.392-12.662,3.62-5.278-.87-7.84-5.34-6.346-10.7a22.6,22.6,0,0,1,5.667-9.21c7.915-8.531,17.582-14.566,28.137-19.2,4.927-2.157,10.06-3.839,15.108-5.723.581-.218,1.2-.331,2.266-.62C467.6,131.279,459.148,147.381,442.952,157.438Z"/><path d="M385.3,131.349c1.229-2.419,1.213-2.629-1.4-3.838-6.1-2.829-12.638-3.94-19.239-4.58-35.419-3.433-68.795,4.342-100.969,18.591-1.782.788-3.557,1.6-5.383,2.267a6.865,6.865,0,0,1-6.522-.7c-2.3-1.576-2.329-3.912.09-5.277,2.824-1.592,5.843-2.825,8.718-4.322a4.687,4.687,0,0,0,2.029-1.861C276.34,102.5,290.137,73.4,303.607,44.158c5.508-11.964,10.325-24.244,15.381-36.415a32.638,32.638,0,0,0,1.8-6.155c.351-1.79,1.552-1.9,2.5-1.151,1.2.952,2.548,2.317,2.817,3.706a13.028,13.028,0,0,1-.133,6.834c-4.345,11.262-8.668,22.555-13.641,33.547-12.1,26.748-24.544,53.336-36.851,79.987-.539,1.166-1.108,2.321-1.884,3.944,5.913-1.611,11.261-3.148,16.652-4.514,21.018-5.336,42.309-8.347,64.052-7.232a89.78,89.78,0,0,1,24.872,4.33,20.311,20.311,0,0,1,6.444,3.8A4.1,4.1,0,0,1,385.3,131.349Z"/><path d="M500.973,109.582c1.373-.16,7.595-.834,17-1.166"/><path d="M819.66,198.783c-.92-2.47-.546-3.552,2.087-4.4,4.145-1.34,8.252-2.843,12.36-4.308l-3.734-10.349c-4.385,1.531-8.8,2.977-13.1,4.71-2.2.89-2.8-.067-3.4-1.762-2.422-6.883-4.758-13.786-7.353-20.6-.833-2.2-.412-3.121,1.752-3.829,4.27-1.389,8.54-2.853,12.743-4.452l-3.743-10.379c-3.074,1.1-6.166,2.183-9.239,3.294-6.147,2.212-6.147,2.212-8.358-3.839-6.606-18.076-21.015-25.381-39.416-19.426-12.676,4.107-25.113,8.923-37.664,13.423-8.205,2.939-8.205,2.939-10.072-5.591-6.8-31.125-26.022-47.277-57.865-48.569-16.439-.68-32.734,1.532-49.1,2.489-14.657.852-29.392,1.714-42.211-7.716-1.2-.891-2.566-1.389-3.906-.173a3.351,3.351,0,0,0-.785,4.347,41.951,41.951,0,0,0,4.164,6.376c14.045,17.118,31.633,27.784,54.132,29.383,4.193.3,8.884-.221,10.378,5.83-13.04,2.327-25.773,6.242-38.746,9.172-15.788,3.571-31.633,8.463-47.478.1a2.312,2.312,0,0,0-2.958.881,3.15,3.15,0,0,0-.479,3.58,17.2,17.2,0,0,0,2.94,3.724c17.357,16.966,37.951,25.1,62.345,22.528,3.418-.354,6.166-.632,8.942,2.365,2.911,3.14,7.238,4.4,11.48,5.467,4.021,1.014,8.137,0,12.685.8-7.535,10.052-8.061,20.478-3.916,31.766,10.072,27.43,19.828,54.974,29.574,82.528,1.408,4,3.189,5.151,7.382,3.59,15.778-5.84,31.671-11.374,47.516-17.051q54.312-19.431,108.607-38.89c6.146-2.2,6.146-2.211,3.9-8.54C826,216.428,822.924,207.572,819.66,198.783ZM755,132.512c3.15.565,3.6,3.619,3.6,5.4.009,2.6-3.275,2.623-5.2,2.92-3.207.5-3.284-2.738-3.446-4.586C749.645,132.8,753.2,133.671,755,132.512Zm-129.316-23.1a4.974,4.974,0,0,1-3.992,1.992c-18.7-.24-34.371-7.372-48.358-21.111,8.166.9,15.309,2.116,22.585,1.618,16.975-1.158,33.959-2.384,50.953-3.131,11.2-.5,22.288.795,32.532,5.86,16.113,7.965,23.112,22.47,27.1,38.88,2.068,8.482,1.829,8.54-6.453,7.439a21.6,21.6,0,0,1-2.834-.431c-4.241-1.168-9.21,1.627-12.848-1.58-3.294-2.91-6.463-5.993-10.685-9.239,4.423-.124,7.133,1.781,10.1,2.757,2.135.7,4.136,1.14,5.189-1.474,1.072-2.681-.737-3.7-2.824-4.519-6.511-2.556-13.031-5.112-20.077-5.754-1.407-.124-3.054-.45-4.222.105-6.721,3.179-13.71.987-20.575,1.3-4.72.21-7.544-2.825-10.311-5.927-1.56-1.733-.325-2.843,1.111-3.81,3.2-2.135,6.788-2.518,10.493-2.4,6.309.182,12.168,2.173,17.98,4.394,2.154.833,4.385,1.733,5.591-1.254s-.986-3.9-3.179-4.72c-7.917-3-15.921-5.419-24.586-4.739A18.844,18.844,0,0,0,625.681,109.41Zm-9.88,51.135c-1.943-1.618-2.058-2.9-.163-4.586,3.409-3.035,7.545-3.973,11.872-4.308a55.767,55.767,0,0,1,16.563,1.531c2.374.527,4.634.585,5.2-2.441.536-2.834-1.59-3.446-3.725-3.877-9.114-1.839-18.238-3.026-27.333.009-3.342,1.111-6.827,2.576-8.425,5.821-1.532,3.121-3.868,3.629-6.788,4.079-16.487,2.537-36.5-2.758-49-13.538,18.21,1.34,34.562-4.394,51.221-8.3,12.216-2.872,24.337-6.136,37-6.51,20.029-.584,34.917,7.937,44.893,25.141a74.769,74.769,0,0,1,8.52,20.163c-9.66-1.646-18.611.785-27.716,1.858-7.181.852-14.39.191-19.857-5.687-.852-.91-2.2-1.705-1.847-3.112.421-1.694,2.115-1.723,3.5-1.857,5.926-.575,11.728.421,17.51,1.512,1.408.269,2.8.661,4.213.814,1.924.2,2.93-1,3.37-2.68a2.488,2.488,0,0,0-1.924-3.313c-8.847-1.905-17.712-4.059-26.846-1.963a10.626,10.626,0,0,0-3.8,1.905C635.217,166.5,622.522,166.165,615.8,160.545Zm74.208,114.7c-6.127,2.2-12.293,4.328-18.353,6.711-3.189,1.264-4.452.259-5.534-2.814-7.86-22.336-15.922-44.6-23.83-66.913-2.537-7.161-5.936-14.083-6.443-21.024.086-6.118,1.675-10.8,5.208-14.811,1.274-1.455,2.1-1.254,3.9-.364,6.108,3.025,9.823,7.544,11.316,14.208.556,2.451,1.819,4.835,5.429,3.628,2.24-.746,2.479,1.523,2.977,2.892,6.166,17.032,12.255,34.093,18.43,51.125.594,1.646.555,2.633-1.312,3.284-2.795.986-2.728,3.073-1.847,5.447,1.062,2.824,1.981,5.706,2.987,8.55.919,2.594,2.058,4.586,5.543,3.5,2.978-.929,2.48,2.173,3.313,3.571C692.872,274.044,691.512,274.705,690.009,275.241Zm3.964-28.483c-2.48.929-4.069.412-5.046-2.393-3.715-10.6-7.64-21.12-11.45-31.69-2.04-5.658-4.06-11.316-6.013-17a7.119,7.119,0,0,1-.479-3.619,3.227,3.227,0,0,1,.221-.709,2.527,2.527,0,0,1,.172-.316,1.347,1.347,0,0,1,.163-.239,2.268,2.268,0,0,1,.287-.316,2.655,2.655,0,0,1,.594-.459.945.945,0,0,0,.1-.058,5.146,5.146,0,0,1,.565-.268c.172-.067.345-.124.536-.182.153-.048.307-.086.469-.124s.345-.067.517-.1.355-.057.546-.077.393-.038.594-.057a2.329,2.329,0,0,1,1.043-.048.867.867,0,0,1,.22.057.6.6,0,0,1,.115.048.527.527,0,0,1,.173.1,1.506,1.506,0,0,1,.191.153,2.071,2.071,0,0,1,.46.718c.048.125.1.249.134.374.076.239.143.488.22.727a1.716,1.716,0,0,0,.067.211,1.3,1.3,0,0,0,.067.211q5.715,15.581,11.336,31.22c2.24,6.252,4.26,12.6,6.654,18.794C697.534,244.6,696.385,245.868,693.973,246.758Zm6.8,24.251c-2.757.422-3.293-1.924-3.332-3.571-.086-3.571,3.4-3.255,5.5-3.686,2.394-.488,1.752,2.394,2.691,3.648C705.136,270.215,702.962,270.665,700.77,271.009Zm76.984-27.247Q746.347,255.05,714.968,266.4c-1.5.545-2.527.565-2.795-1.178s-3.112-3.695.105-5.189c3.2-1.493,2.843-3.743,1.848-6.338-.967-2.527-1.848-5.074-2.777-7.611-.88-2.384-2.039-4.4-5.141-3.734-2.164.469-2.757-1.1-3.3-2.614q-9.19-25.561-18.372-51.125c-.5-1.378-.68-2.355.852-3.14a4.407,4.407,0,0,0,2.125-1.838c.833-2.193.23-5.611,4.462-4.194,2.383.805,5.083,1.006,6.711,3.265a3.311,3.311,0,0,0,4.193,1.235c1.6-.584,1.992-1.924,1.685-3.657-2.154-7.822-4.509-15.759-8.252-23.15-1.341-2.652-1.034-3.763,1.914-4.777,13.509-4.673,26.951-9.565,40.412-14.39,1.8-.642,3.772-1.714,4.72,1.024.708,2.011,3.073,4.289-.46,6.041a2.951,2.951,0,0,0-1.091.9c-2.02,2.8,3.648,16.171,7.056,16.238,2.116.048,3.112.613,3.82,2.594,6.041,17.071,12.178,34.113,18.286,51.154.422,1.168,1.312,2.633-.373,3.294-3.791,1.512-2.661,4.078-1.733,6.692.967,2.69,1.886,5.4,2.92,8.061.8,2.039,1.9,3.8,4.567,3.083,3.14-.862,2.671,1.934,3.437,3.4C780.875,242.536,779.392,243.178,777.754,243.762Zm3.457-28.243c-3.5-.01-4.012-1.886-4.586-3.466-5.955-16.544-11.8-33.136-17.808-49.67-1.024-2.8.689-3.293,2.547-3.983,2.154-.8,4.2-1.685,5.294,1.551,1.877,5.553,3.954,11.039,5.926,16.554,3.945,11.048,7.937,22.068,11.786,33.145C785.6,213.183,783.69,215.557,781.211,215.519Zm7.9,23.915c-2.939.728-3.8-1.7-3.772-3.628.057-3.131,3.4-2.93,5.342-3.542,2.3-.719,2.422,1.809,2.863,3.188C793.858,239.032,791.1,238.937,789.109,239.434Zm30.216-10.454c-5.17,1.551-10.187,3.58-15.28,5.361-1.523.536-3.122,1.12-3.964-1.063-.7-1.79-1.762-3.714.727-4.9,2.863-1.37,2.806-3.5,1.925-5.984-1-2.844-1.972-5.706-3-8.54-.881-2.442-2.058-4.356-5.237-3.093-2.068.833-2.814-.66-3.389-2.259q-9.09-25.577-18.2-51.144c-.7-1.972-.517-3.342,1.752-4.06a2.529,2.529,0,0,0,1.809-3.006,50.82,50.82,0,0,0-4.729-13.394,2,2,0,0,0-2.393-1.168c-5.553,2.2-5.687-2.824-5.812-5.313-.124-2.71,3.389-2.432,5.63-2.71a22.011,22.011,0,0,1,2.862-.029c9.22.087,17.166,5.649,20.613,14.955,5.562,15.012,10.866,30.12,16.276,45.189,4.3,11.948,8.5,23.926,12.972,35.807C823.049,226.72,822.522,228.022,819.325,228.98Z"/><path class="cls-1" d="M779.784,240.44c-.766-1.465-.3-4.261-3.437-3.4-2.662.718-3.772-1.044-4.567-3.083-1.034-2.661-1.953-5.371-2.92-8.061-.928-2.614-2.058-5.18,1.733-6.692,1.685-.661.8-2.126.373-3.294-6.108-17.041-12.245-34.083-18.286-51.154-.708-1.981-1.7-2.546-3.82-2.594-3.408-.067-9.076-13.442-7.056-16.238a2.951,2.951,0,0,1,1.091-.9c3.533-1.752,1.168-4.03.46-6.041-.948-2.738-2.92-1.666-4.72-1.024-13.461,4.825-26.9,9.717-40.412,14.39-2.948,1.014-3.255,2.125-1.914,4.777,3.743,7.391,6.1,15.328,8.252,23.15.307,1.733-.086,3.073-1.685,3.657a3.311,3.311,0,0,1-4.193-1.235c-1.628-2.259-4.328-2.46-6.711-3.265-4.232-1.417-3.629,2-4.462,4.194a4.407,4.407,0,0,1-2.125,1.838c-1.532.785-1.35,1.762-.852,3.14q9.234,25.534,18.372,51.125c.546,1.513,1.139,3.083,3.3,2.614,3.1-.67,4.261,1.35,5.141,3.734.929,2.537,1.81,5.084,2.777,7.611,1,2.6,1.35,4.845-1.848,6.338-3.217,1.494-.364,3.456-.105,5.189s1.292,1.723,2.795,1.178q31.365-11.374,62.786-22.633C779.392,243.178,780.875,242.536,779.784,240.44Zm-27.793-26.626c-11.087,3.916-22.116,7.976-33.174,11.978-.44.162-.909.248-1.063.3-2.307.374-2.719-1.2-3.188-2.5-3.073-8.512-6.012-17.08-9.153-25.563-.813-2.2-.3-3.073,1.839-3.81q16.874-5.889,33.652-12.025c2.02-.747,2.757-.3,3.437,1.637,3.016,8.693,6.137,17.367,9.3,26.012C754.365,211.823,754.308,213,751.991,213.814Z"/><path class="cls-2" d="M554,143.238c18.2,1.339,34.561-4.4,51.214-8.307,12.218-2.869,24.343-6.136,37.012-6.5,20.022-.582,34.915,7.936,44.891,25.135a74.833,74.833,0,0,1,8.521,20.169c-9.66-1.646-18.613.78-27.715,1.856-7.182.849-14.394.193-19.864-5.69-.846-.91-2.2-1.7-1.845-3.112.422-1.69,2.112-1.721,3.5-1.856,5.926-.575,11.728.418,17.515,1.517,1.406.266,2.8.659,4.213.811,1.921.2,2.932-1,3.368-2.685a2.486,2.486,0,0,0-1.92-3.308c-8.853-1.905-17.718-4.062-26.849-1.961a10.529,10.529,0,0,0-3.8,1.907c-7.026,5.293-19.726,4.956-26.447-.663-1.938-1.621-2.059-2.9-.16-4.592,3.4-3.035,7.543-3.966,11.872-4.3a55.881,55.881,0,0,1,16.565,1.527c2.371.53,4.625.586,5.2-2.437.536-2.837-1.6-3.448-3.73-3.879-9.109-1.835-18.235-3.022-27.326.007-3.348,1.116-6.833,2.578-8.426,5.823-1.534,3.123-3.87,3.632-6.788,4.081C586.516,159.313,566.509,154.02,554,143.238Z"/><path class="cls-2" d="M673.683,129.7c4.428-.116,7.134,1.783,10.105,2.761,2.135.7,4.133,1.144,5.184-1.473,1.076-2.681-.735-3.7-2.823-4.518-6.511-2.559-13.024-5.115-20.079-5.751-1.405-.127-3.052-.453-4.216.1-6.728,3.181-13.717.985-20.573,1.3-4.725.217-7.55-2.819-10.319-5.917-1.552-1.737-.322-2.849,1.119-3.813,3.192-2.137,6.786-2.52,10.493-2.409,6.3.187,12.168,2.175,17.971,4.4,2.163.829,4.393,1.73,5.6-1.253s-.983-3.9-3.176-4.728c-7.922-3-15.921-5.412-24.585-4.732a18.843,18.843,0,0,0-12.7,5.741,5,5,0,0,1-3.99,1.993c-18.7-.245-34.374-7.375-48.357-21.11,8.162.9,15.311,2.111,22.586,1.614,16.976-1.158,33.953-2.38,50.949-3.132,11.2-.5,22.288.8,32.53,5.861,16.12,7.966,23.113,22.468,27.11,38.879,2.066,8.487,1.83,8.546-6.46,7.446a21.1,21.1,0,0,1-2.827-.435c-4.243-1.166-9.216,1.624-12.85-1.583C681.078,136.037,677.91,132.954,673.683,129.7Z"/><path class="cls-1" d="M635.85,191.2c.081-6.112,1.678-10.8,5.207-14.812,1.276-1.449,2.093-1.249,3.894-.358,6.11,3.025,9.829,7.54,11.324,14.207.548,2.449,1.818,4.837,5.427,3.629,2.236-.748,2.48,1.523,2.974,2.886,6.167,17.034,12.259,34.1,18.427,51.129.6,1.645.558,2.63-1.308,3.287-2.8.985-2.73,3.071-1.845,5.443,1.055,2.828,1.975,5.706,2.985,8.552.921,2.6,2.054,4.587,5.539,3.5,2.981-.929,2.483,2.176,3.319,3.576,1.077,1.8-.285,2.471-1.78,3.006-6.135,2.2-12.3,4.322-18.361,6.713-3.185,1.256-4.451.256-5.533-2.821-7.856-22.336-15.916-44.6-23.828-66.915C639.754,205.063,636.36,198.14,635.85,191.2Z"/><path class="cls-1" d="M772.024,127.682c9.225.079,17.169,5.642,20.62,14.953,5.564,15.01,10.86,30.118,16.276,45.183,4.3,11.947,8.5,23.926,12.966,35.81,1.16,3.088.637,4.4-2.565,5.355-5.166,1.544-10.185,3.574-15.28,5.36-1.518.532-3.119,1.113-3.964-1.062-.694-1.789-1.761-3.713.729-4.9,2.865-1.369,2.806-3.5,1.926-5.986-1-2.844-1.967-5.7-2.992-8.538-.884-2.445-2.062-4.359-5.236-3.09-2.072.829-2.822-.662-3.392-2.266q-9.095-25.573-18.2-51.144c-.7-1.965-.514-3.334,1.75-4.053a2.54,2.54,0,0,0,1.814-3.01,50.8,50.8,0,0,0-4.736-13.4,2.006,2.006,0,0,0-2.394-1.171c-5.55,2.207-5.684-2.821-5.805-5.311-.132-2.712,3.385-2.427,5.626-2.712A22.693,22.693,0,0,1,772.024,127.682Z"/><path class="cls-3" d="M781.207,215.518c-3.5-.007-4.011-1.886-4.58-3.464-5.958-16.549-11.81-33.137-17.813-49.669-1.017-2.8.7-3.3,2.547-3.989,2.155-.8,4.2-1.683,5.3,1.553,1.879,5.551,3.95,11.038,5.923,16.558,3.947,11.042,7.939,22.069,11.789,33.144C785.6,213.18,783.688,215.553,781.207,215.518Z"/><path class="cls-3" d="M675.747,189.156c2.179-.517,2.242,1.314,2.69,2.538q5.713,15.594,11.332,31.225c2.244,6.255,4.258,12.6,6.651,18.792,1.117,2.89-.036,4.156-2.446,5.051-2.485.923-4.07.41-5.051-2.4-3.708-10.6-7.633-21.126-11.445-31.69-2.041-5.655-4.059-11.32-6.011-17.006C670.02,191.458,671.376,189.465,675.747,189.156Z"/><path class="cls-3" d="M754.993,132.509c3.151.573,3.6,3.619,3.606,5.4.006,2.6-3.277,2.626-5.2,2.923-3.206.494-3.282-2.745-3.445-4.59C749.648,132.8,753.2,133.671,754.993,132.509Z"/><path class="cls-3" d="M793.544,235.448c.315,3.587-2.442,3.486-4.431,3.984-2.939.734-3.806-1.7-3.772-3.628.056-3.132,3.392-2.931,5.342-3.542C792.976,231.544,793.105,234.071,793.544,235.448Z"/><path class="cls-3" d="M705.632,267.4c-.5,2.811-2.669,3.266-4.858,3.6-2.758.423-3.294-1.924-3.333-3.565-.085-3.573,3.4-3.26,5.5-3.688C705.334,263.265,704.694,266.148,705.632,267.4Z"/><path class="cls-3" d="M717.757,226.084c-2.31.377-2.724-1.191-3.192-2.491-3.067-8.516-6.007-17.079-9.153-25.566-.817-2.2-.294-3.072,1.839-3.815q16.874-5.881,33.657-12.022c2.02-.742,2.758-.3,3.428,1.635q4.531,13.05,9.3,26.017c.726,1.984.669,3.158-1.652,3.977-11.085,3.912-22.116,7.974-33.169,11.976A9.814,9.814,0,0,1,717.757,226.084Z"/><line class="cls-4" x1="821.019" y1="153.786" x2="817.276" y2="143.407"/><line class="cls-4" x1="834.107" y1="190.071" x2="830.373" y2="179.722"/><rect x="802.627" y="158.057" width="56.385" height="12.329" transform="translate(711.293 -674.195) rotate(70.705)"/><rect x="820.938" y="155.984" width="19.761" height="16.476" rx="3.525" transform="translate(711.293 -674.195) rotate(70.705)"/></svg>